<svg xmlns="http://www.w3.org/2000/svg" xmlns:xlink="http://www.w3.org/1999/xlink" width="1149" height="1080" viewBox="0 0 1149 1080">
  <defs>
    <clipPath id="clip-path">
      <rect id="Retângulo_32" data-name="Retângulo 32" width="1149" height="1080" fill="#fff"/>
    </clipPath>
  </defs>
  <g id="Q2" clip-path="url(#clip-path)">
    <path id="Caminho_37" data-name="Caminho 37" d="M-1102.771,1067.2c245.491,0,323.647-261.212,323.647-537.149,0-280.8-73.313-550.208-330-550.208-239.163,0-322.048,279.222-322.048,542.077,0,274.282,73.34,545.279,328.4,545.279m-6.355-1111.819c358.747,0,561.244,261.222,561.244,564.867,0,300.417-204.091,556.766-537.338,568.191,49.465,48.969,141.949,52.193,205.714,45.717,95.653,65.241,199.276,163.221,307.661,163.221,30.315,0,63.766-14.672,103.627-45.686l14.385,16.365C-519.248,1343.1-614.839,1408.4-694.56,1408.4c-154.686,0-366.7-233.461-425.7-318.387-355.584-4.878-542.152-257.927-542.152-566.473,0-311.814,215.287-568.163,553.289-568.163" transform="translate(1536.416 -244.002)" fill="#19355a" opacity="0.15"/>
  </g>
</svg>
