<svg xmlns="http://www.w3.org/2000/svg" width="1295.512" height="92.024" viewBox="0 0 1295.512 92.024">
  <g id="titulo" transform="translate(-140 -103.64)">
    <g id="Grupo_7" data-name="Grupo 7" transform="translate(140 116.979)">
      <path id="Caminho_2" data-name="Caminho 2" d="M86.393,1656.784c10.3,0,13.577-10.7,13.577-22.006,0-11.5-3.075-22.54-13.841-22.54-10.035,0-13.51,11.438-13.51,22.207,0,11.236,3.071,22.339,13.774,22.339m-.264-45.548c15.049,0,23.543,10.7,23.543,23.141,0,12.308-8.561,22.809-22.542,23.278,2.074,2.005,5.955,2.139,8.631,1.875,4.011,2.672,8.36,6.685,12.907,6.685a7.487,7.487,0,0,0,4.349-1.871l.6.67c-2.741,3.075-6.753,5.75-10.1,5.75-6.491,0-15.385-9.565-17.859-13.043-14.917-.2-22.742-10.568-22.742-23.209,0-12.775,9.029-23.276,23.211-23.276" transform="translate(-62.918 -1608.493)" fill="#1b365d"/>
      <path id="Caminho_3" data-name="Caminho 3" d="M414.52,1708.936v23.877c0,5.485,4.882,3.479,4.882,5.018v.4c-3.944.534-7.895.8-11.837,1.337-.068-.066-.2-.266-.331-.333l.4-4.749h-.268a11.943,11.943,0,0,1-9.971,5.017c-4.548,0-9.228-2.142-9.228-8.9V1715.49c0-5.419-4.686-3.41-4.686-4.95v-.469l11.905-1.4a.876.876,0,0,0,.335.333v22.944c0,3.678,1.809,5.551,4.748,5.551,2.476,0,4.954-1.74,6.557-4.414V1715.49c0-5.419-4.678-3.478-4.678-5.016v-.4l11.9-1.4Z" transform="translate(-331.988 -1690.275)" fill="#1b365d"/>
      <path id="Caminho_4" data-name="Caminho 4" d="M648.775,1734.024v-10.568a16.858,16.858,0,0,0-1.873-.133c-7.026,0-9.562,3.679-9.562,8.16,0,3.947,1.666,6.22,4.477,6.22a8.979,8.979,0,0,0,6.958-3.679m7.49-13.646v13.245c0,3.277.466,4.08,3.747,4.148,0,.132.066.668.066.8a14.151,14.151,0,0,1-5.553,1.271c-2.875,0-5.283-.8-5.553-4.413h-.263a13.67,13.67,0,0,1-10.9,4.48c-4.352,0-8.225-2.342-8.225-7.224,0-8.026,8.355-10.435,15.581-10.435a31.448,31.448,0,0,1,3.613.2v-4.347c0-3.745-.938-7.959-6.019-7.959a9.016,9.016,0,0,0-5.286,1.538,5.607,5.607,0,0,1,1.941,4.279,3.984,3.984,0,0,1-4.216,4.147,3.1,3.1,0,0,1-3.206-3.277c0-2.809,2.872-7.76,12.1-7.76,10.033,0,12.173,5.753,12.173,11.3" transform="translate(-538.556 -1690.615)" fill="#1b365d"/>
      <path id="Caminho_5" data-name="Caminho 5" d="M870.34,1733.9c0,5.214,4.95,3.274,4.95,4.814v.4H858.567v-.4c0-1.54,4.283.536,4.283-5.217V1716.7c0-3.677-1.873-5.349-4.48-5.349a8.381,8.381,0,0,0-7.026,4.011v18.53c0,5.282,4.417,3.274,4.417,4.814v.4H838.97v-.4c0-1.54,4.884.6,4.884-5.217v-17.456c0-5.487-4.815-3.48-4.815-5.018v-.4c2.207-.334,9.431-1.2,11.638-1.539l.336.335c-.134.869-.4,4.214-.476,5.084a1.5,1.5,0,0,0,.273.069,12.047,12.047,0,0,1,10.166-5.422c4.681,0,9.364,2.074,9.364,8.9Z" transform="translate(-714.31 -1690.618)" fill="#1b365d"/>
      <path id="Caminho_6" data-name="Caminho 6" d="M1088.131,1694.755c-6.289,0-7.628-3.076-7.628-7.356v-21.472h-4.214v-1l4.281-.2c3.211-1.338,5.817-5.686,6.492-9.365H1088v9.5h8.694v1.071H1088v21.537c0,3.41,1,5.15,3.811,5.15a12.12,12.12,0,0,0,5.218-1.405l.334.736a17.649,17.649,0,0,1-9.23,2.809" transform="translate(-913.507 -1645.528)" fill="#1b365d"/>
      <path id="Caminho_7" data-name="Caminho 7" d="M1239.163,1595.1c-2.747,0-6.559.872-8.3,2.008a4.749,4.749,0,0,1,4.15,4.616,4.337,4.337,0,0,1-4.348,4.348,4.39,4.39,0,0,1-4.348-4.146c0-5.018,7.092-7.76,13.042-7.76,8.833,0,14.517,4.883,14.517,14.046v5.351h8.759v.937h-8.759v21.268c0,3.612,1,5.352,3.878,5.352a11.678,11.678,0,0,0,5.019-1.338l.332.8a17.892,17.892,0,0,1-9.166,2.742c-7.423,0-7.558-4.08-7.558-9.565v-19.2h-3.476v-.869a8.93,8.93,0,0,0,8.024-8.9c0-6.688-5.618-9.7-11.766-9.7m-11.844,24.347c0-5.415-4.88-3.411-4.88-4.948v-.467l12.038-1.407.334.267v24.682c0,5.083,5.086,3.143,5.086,4.683v.4h-17.324v-.4c0-1.472,4.747.4,4.747-5.016Z" transform="translate(-1036.18 -1594.162)" fill="#1b365d"/>
      <path id="Caminho_8" data-name="Caminho 8" d="M1510.583,1734.024v-10.568a16.928,16.928,0,0,0-1.877-.133c-7.022,0-9.565,3.679-9.565,8.16,0,3.947,1.674,6.22,4.484,6.22a8.985,8.985,0,0,0,6.958-3.679m7.487-13.646v13.245c0,3.277.472,4.08,3.745,4.148,0,.132.069.668.069.8a14.142,14.142,0,0,1-5.551,1.271c-2.874,0-5.286-.8-5.553-4.413h-.265a13.673,13.673,0,0,1-10.9,4.48c-4.348,0-8.229-2.342-8.229-7.224,0-8.026,8.365-10.435,15.588-10.435a31.532,31.532,0,0,1,3.614.2v-4.347c0-3.745-.94-7.959-6.02-7.959a9.013,9.013,0,0,0-5.286,1.538,5.613,5.613,0,0,1,1.939,4.279,3.982,3.982,0,0,1-4.216,4.147,3.105,3.105,0,0,1-3.207-3.277c0-2.809,2.876-7.76,12.1-7.76,10.028,0,12.171,5.753,12.171,11.3" transform="translate(-1261.921 -1690.615)" fill="#1b365d"/>
      <path id="Caminho_9" data-name="Caminho 9" d="M1714.339,1708.668c6.158,0,10.5,2.341,10.5,6.018a3.028,3.028,0,0,1-3.071,3.145,3.711,3.711,0,0,1-3.749-3.945,9.291,9.291,0,0,1,.74-3.616,10.03,10.03,0,0,0-3.413-.6c-2.475,0-5.888,1.338-5.888,5.485,0,6.289,17.059,5.952,17.059,15.584,0,6.086-6.422,8.828-13.245,8.828s-11.64-2.54-11.64-6.22a3.154,3.154,0,0,1,3.282-3.276,3.913,3.913,0,0,1,4.009,4.212,6.549,6.549,0,0,1-.933,3.547,13.465,13.465,0,0,0,4.546.8c3.346,0,6.821-1.94,6.821-6.151,0-6.89-16.65-6.488-16.65-14.985,0-5.35,4.608-8.827,11.632-8.827" transform="translate(-1438.398 -1690.275)" fill="#1b365d"/>
    </g>
    <text id="GESTÃO_DE_RECURSOS" data-name="GESTÃO DE RECURSOS" transform="translate(692 104.152)" fill="#1b365d" stroke="rgba(0,0,0,0)" stroke-width="0.512" font-size="69" font-family="Roboto-Light, Roboto" font-weight="300"><tspan x="0" y="72">GESTÃO DE</tspan><tspan y="72" font-family="Roboto-Regular, Roboto" font-weight="400"> </tspan><tspan y="72" font-family="Roboto-Bold, Roboto" font-weight="700">RECURSOS</tspan></text>
    <line id="Linha_2" data-name="Linha 2" x1="179.208" transform="translate(477.292 148.114)" fill="none" stroke="#1b365d" stroke-linecap="round" stroke-width="2"/>
  </g>
</svg>
