<svg xmlns="http://www.w3.org/2000/svg" width="154" height="154" viewBox="0 0 154 154">
  <g id="Grupo_156" data-name="Grupo 156" transform="translate(-1021.101 -250)">
    <circle id="Elipse_18" data-name="Elipse 18" cx="77" cy="77" r="77" transform="translate(1021.101 250)" fill="#264b73" opacity="0.5"/>
    <g id="Grupo_102" data-name="Grupo 102" transform="translate(2195.031 -1735.691)">
      <path id="Caminho_89" data-name="Caminho 89" d="M-1117.494,2086.213a3.5,3.5,0,0,0,.707-3.875c-.529-1.346-1.718-1.86-2.932-2.382-13.363-5.747-20.564-18.669-18.426-33.036,2.218-14.9,13.982-25.664,29.061-26.221,11.271-.416,20.251,4.186,26.807,13.373a29.247,29.247,0,0,1,4.869,11.816,3.672,3.672,0,0,0,4.293,3.2,3.689,3.689,0,0,0,2.834-4.61,37.074,37.074,0,0,0-7.732-16.8c-6.563-8.048-14.961-12.931-25.341-14.085a37.52,37.52,0,0,0-23.859,5.266,36.739,36.739,0,0,0-17.856,24.486c-.394,1.79-.579,3.626-.861,5.44v5.631c.073.5.151,1.009.216,1.514a38.374,38.374,0,0,0,11.142,22.7,36.432,36.432,0,0,0,12.99,8.444A3.606,3.606,0,0,0-1117.494,2086.213Z" fill="#fff"/>
      <path id="Caminho_90" data-name="Caminho 90" d="M-988.72,2208.054c.011,2.344,1.462,3.915,3.608,3.929a3.589,3.589,0,0,0,3.653-3.885q.019-7.853,0-15.706a3.615,3.615,0,0,0-3.814-3.822q-7.946-.014-15.891,0a4.871,4.871,0,0,0-.9.065,3.566,3.566,0,0,0-2.984,3.845,3.524,3.524,0,0,0,3.544,3.335c2.3.054,4.6.015,6.9.021.25,0,.5.034.908.065-3.445,3.439-6.752,6.765-10.1,10.047a2.219,2.219,0,0,1-1.4.577q-8.445.059-16.89.008a4.762,4.762,0,0,0-3.631,1.509q-12.173,12.225-24.389,24.406a7.793,7.793,0,0,0-.735.8,3.6,3.6,0,0,0,1.428,5.492c.245.11.492.216.738.323h1.453a18.313,18.313,0,0,0,2.551-1.8q11.439-11.353,22.8-22.782a2.112,2.112,0,0,1,1.66-.678c5.6.025,11.2-.007,16.8.029a4.655,4.655,0,0,0,3.551-1.486c3.421-3.47,6.882-6.9,10.33-10.344.22-.221.458-.424.809-.746C-988.722,2203.648-988.731,2205.851-988.72,2208.054Z" transform="translate(-71.454 -132.702)" fill="#fff"/>
      <path id="Caminho_91" data-name="Caminho 91" d="M-785.312,2330.288c-.085-3.746-.019-7.5-.025-11.244a3.648,3.648,0,0,0-3.588-3.953,3.649,3.649,0,0,0-3.676,3.955c-.006,3.748.06,7.5-.025,11.245-.051,2.26.686,3.872,2.93,4.6h1.454C-786,2334.159-785.261,2332.548-785.312,2330.288Z" transform="translate(-267.574 -228.526)" fill="#fff"/>
      <path id="Caminho_92" data-name="Caminho 92" d="M-905.136,2319.044a3.649,3.649,0,0,0-3.587-3.954,3.65,3.65,0,0,0-3.677,3.954c-.006,3.748.06,7.5-.025,11.244-.051,2.26.686,3.872,2.93,4.6h1.453c2.242-.729,2.982-2.339,2.93-4.6C-905.2,2326.542-905.13,2322.792-905.136,2319.044Z" transform="translate(-176.845 -228.526)" fill="#fff"/>
      <path id="Caminho_93" data-name="Caminho 93" d="M-845.236,2319.044a3.648,3.648,0,0,0-3.588-3.954,3.65,3.65,0,0,0-3.676,3.955c-.006,3.748.06,7.5-.025,11.244-.051,2.26.686,3.872,2.93,4.6h1.453c2.241-.729,2.981-2.34,2.93-4.6C-845.3,2326.542-845.23,2322.792-845.236,2319.044Z" transform="translate(-222.21 -228.526)" fill="#fff"/>
      <path id="Caminho_94" data-name="Caminho 94" d="M-965.084,2364.224a3.651,3.651,0,0,0-3.221-3.478,3.459,3.459,0,0,0-3.872,2.683c-.5,2.831-.277,4.964,2.738,6.02h1.453c2.237-.728,3.083-2.335,2.909-4.591C-965.094,2364.647-965.074,2364.435-965.084,2364.224Z" transform="translate(-131.434 -263.086)" fill="#fff"/>
      <path id="Caminho_95" data-name="Caminho 95" d="M-1017.38,2114.133a10.561,10.561,0,0,0,6.365-10.294c-.309-4.884-3.174-8.712-7.6-10a20.717,20.717,0,0,0-3.482-.532,3.6,3.6,0,0,1-3.365-3.243,3.587,3.587,0,0,1,2.463-3.8,3.423,3.423,0,0,1,4.311,1.875c.112.214.216.434.348.636a3.6,3.6,0,0,0,4.056,1.468,3.8,3.8,0,0,0,2.683-3.47,12.44,12.44,0,0,0-.446-1.552,10.236,10.236,0,0,0-3.976-4.714c-.7-.447-1.739-.654-2.1-1.274-.371-.638-.063-1.65-.121-2.494a3.545,3.545,0,0,0-3.581-3.392,3.557,3.557,0,0,0-3.65,3.417,9.24,9.24,0,0,0,0,1.723c.086.723-.21,1.031-.86,1.323a10.9,10.9,0,0,0-2.465,18.294,11.326,11.326,0,0,0,7.046,2.491,3.537,3.537,0,0,1,3.512,3.375,3.586,3.586,0,0,1-2.913,3.823,3.835,3.835,0,0,1-4.148-2.244,3.631,3.631,0,0,0-4.937-1.66,3.644,3.644,0,0,0-1.519,4.983,9.223,9.223,0,0,0,4.172,4.53,3.189,3.189,0,0,1,2.164,3.6,3.406,3.406,0,0,0,3.2,3.363,3.55,3.55,0,0,0,3.834-2.649,7.906,7.906,0,0,0,.15-2.247A1.177,1.177,0,0,1-1017.38,2114.133Z" transform="translate(-85.737 -45.44)" fill="#fff"/>
    </g>
  </g>
</svg>
