<svg xmlns="http://www.w3.org/2000/svg" width="64.209" height="68.713" viewBox="0 0 64.209 68.713">
  <g id="Grupo_65" data-name="Grupo 65" transform="translate(-84.227 -1295.166)">
    <path id="Caminho_64" data-name="Caminho 64" d="M216.883,1314.887a6.866,6.866,0,0,0-5.328-6.935,8.751,8.751,0,0,0-1.9-.192c-2.118-.023-4.237-.009-6.444-.009,0-.812.019-1.578,0-2.341a2.142,2.142,0,0,0-2.139-2.164,2.119,2.119,0,0,0-2.1,2.187c-.01.552,0,1.105,0,1.658v.621H187.3c0-.717,0-1.438,0-2.158a2.129,2.129,0,1,0-4.244,0c-.005.7,0,1.408,0,2.155H171.4c0-.682,0-1.38,0-2.077a2.135,2.135,0,1,0-4.244-.022c-.005.683,0,1.366,0,2.143h-.739c-1.946,0-3.891-.005-5.837,0a6.893,6.893,0,0,0-7.1,7.066q-.015,24.636,0,49.272a6.864,6.864,0,0,0,5.858,6.963,1.146,1.146,0,0,1,.237.1h51.215a8.564,8.564,0,0,0,3.268-1.35,6.913,6.913,0,0,0,2.824-5.385c.007-.132.006-.265.006-.4Q216.885,1339.457,216.883,1314.887Zm-4.243,12.207q0,18.368,0,36.737a2.728,2.728,0,0,1-3.048,3.077q-24.407,0-48.814,0a2.725,2.725,0,0,1-3.059-3.065q0-18.368,0-36.737v-.76h54.921Zm0-5.082H157.726c0-2.55-.033-5.047.014-7.543a2.5,2.5,0,0,1,2.367-2.442c2.316-.066,4.635-.019,7.046-.019,0,.8-.017,1.564,0,2.328a2.12,2.12,0,1,0,4.238-.016c.01-.53,0-1.061,0-1.591v-.689h11.66c0,.717,0,1.437,0,2.157a2.129,2.129,0,1,0,4.244,0c.005-.7,0-1.408,0-2.155h11.66c0,.686,0,1.384,0,2.082a2.135,2.135,0,1,0,4.244.014c.006-.683,0-1.365,0-2.1.231-.015.422-.038.613-.039q2.985,0,5.969,0a2.659,2.659,0,0,1,2.847,2.8C212.647,1317.188,212.639,1319.574,212.639,1322.012Z" transform="translate(-68.85 -7.68)" fill="#fff" stroke="rgba(0,0,0,0)" stroke-width="0.8"/>
    <path id="Caminho_65" data-name="Caminho 65" d="M357.428,1478.809c.815.176,1.665.189,2.5.284a3.257,3.257,0,0,1,2.946,2.622,2.969,2.969,0,0,1-2.329,3.056,3.809,3.809,0,0,1-3.682-.686c-.355-.3-.686-.628-1.06-.9a2.109,2.109,0,0,0-2.821.307,2.08,2.08,0,0,0,0,2.786,8.336,8.336,0,0,0,3.448,2.4,1.045,1.045,0,0,1,.873,1.2,2.059,2.059,0,0,0,2.135,2.258,2.086,2.086,0,0,0,2.071-2.33c-.039-.674.129-1.042.8-1.152a1.65,1.65,0,0,0,.37-.143,6.926,6.926,0,0,0,3.55-9.849,7.537,7.537,0,0,0-6.306-3.811,5.645,5.645,0,0,1-2.737-.646,2.669,2.669,0,0,1-.029-4.689,4.6,4.6,0,0,1,5.475.8,2.128,2.128,0,0,0,3.1.433,2.176,2.176,0,0,0,.137-3.185,6.635,6.635,0,0,0-3.088-2.1c-1.005-.321-1.628-.733-1.388-1.891a1.109,1.109,0,0,0-.077-.454,2.107,2.107,0,0,0-2.225-1.592,2.081,2.081,0,0,0-1.923,2.01c-.017.441,0,.882,0,1.36-.388.147-.72.263-1.046.4a7.1,7.1,0,0,0-4.513,7.539A7.422,7.422,0,0,0,357.428,1478.809Z" transform="translate(-231.819 -137.906)" fill="#fff" stroke="rgba(0,0,0,0)" stroke-width="0.8"/>
    <path id="Caminho_66" data-name="Caminho 66" d="M296.411,1534.263a2.119,2.119,0,0,0,2.119-2.356q.006-4.211,0-8.421,0-4.177,0-8.355a3.214,3.214,0,0,0-.1-.914,2.1,2.1,0,0,0-2.373-1.465,2.145,2.145,0,0,0-1.765,2.239q-.009,8.454,0,16.908A2.143,2.143,0,0,0,296.411,1534.263Z" transform="translate(-184.712 -180.041)" fill="#fff" stroke="rgba(0,0,0,0)" stroke-width="0.8"/>
    <path id="Caminho_67" data-name="Caminho 67" d="M225.288,1567.8a2.124,2.124,0,1,0,4.24.044q.017-4.669,0-9.338a2.125,2.125,0,1,0-4.24.022c-.008,1.545,0,3.091,0,4.636S225.281,1566.25,225.288,1567.8Z" transform="translate(-127.939 -215.85)" fill="#fff" stroke="rgba(0,0,0,0)" stroke-width="0.8"/>
  </g>
</svg>
