<svg xmlns="http://www.w3.org/2000/svg" width="77.52" height="77.513" viewBox="0 0 77.52 77.513">
  <g id="Grupo_67" data-name="Grupo 67" transform="translate(0.394 0.4)">
    <path id="Caminho_70" data-name="Caminho 70" d="M1309.219,1321.7c-.982-.276-1.955-.594-2.908-.958a1.186,1.186,0,0,1-.659-.659,36.76,36.76,0,0,0-3.606-8.67,1.175,1.175,0,0,1,0-.927c.446-1,.973-1.964,1.45-2.951a2.308,2.308,0,0,0-.515-3.049q-2.953-2.974-5.929-5.928a2.31,2.31,0,0,0-3.051-.513c-.987.477-1.951,1-2.952,1.449a1.176,1.176,0,0,1-.927-.006,36.794,36.794,0,0,0-8.672-3.605,1.185,1.185,0,0,1-.657-.661c-.364-.953-.682-1.926-.958-2.908a2.888,2.888,0,0,0-1.889-2.136h-9.89a2.89,2.89,0,0,0-1.889,2.137c-.276.983-.595,1.957-.959,2.91a1.187,1.187,0,0,1-.661.658,36.76,36.76,0,0,0-8.677,3.61,1.18,1.18,0,0,1-.928-.006c-1-.447-1.966-.974-2.954-1.451a2.291,2.291,0,0,0-3,.48q-3.008,2.977-5.987,5.985a2.311,2.311,0,0,0-.486,3.056c.479.987,1.006,1.952,1.45,2.953a1.175,1.175,0,0,1-.03.928,36.533,36.533,0,0,0-3.583,8.606,1.268,1.268,0,0,1-.706.705c-1.048.4-2.13.7-3.192,1.06a2.358,2.358,0,0,0-1.815,2.517q-.013,4.195,0,8.389a2.372,2.372,0,0,0,1.87,2.55c1.064.354,2.143.667,3.192,1.061a1.179,1.179,0,0,1,.648.672,36.385,36.385,0,0,0,3.615,8.673,1.089,1.089,0,0,1,.012.864c-.462,1.021-1,2.008-1.487,3.019a2.29,2.29,0,0,0,.5,2.993q2.979,3.006,5.986,5.985a2.29,2.29,0,0,0,2.993.5c1.011-.486,2-1.024,3.02-1.487a1.089,1.089,0,0,1,.864.011,36.377,36.377,0,0,0,8.674,3.615,1.18,1.18,0,0,1,.673.647c.394,1.049.707,2.128,1.061,3.192a2.372,2.372,0,0,0,2.549,1.871q4.2.012,8.391,0a2.359,2.359,0,0,0,2.519-1.813c.358-1.062.664-2.144,1.06-3.192a1.268,1.268,0,0,1,.7-.707,34.4,34.4,0,0,0,8.593-3.608.911.911,0,0,1,1.022,0c.947.5,1.911.974,2.875,1.442a2.313,2.313,0,0,0,3.057-.484q3.005-2.98,5.986-5.986a2.288,2.288,0,0,0,.482-3c-.488-1.01-1.026-2-1.487-3.019a1.088,1.088,0,0,1,.027-.864,36.5,36.5,0,0,0,3.613-8.674,1.187,1.187,0,0,1,.657-.662c.953-.364,1.927-.685,2.911-.958a2.9,2.9,0,0,0,2.14-1.89v-9.888A2.9,2.9,0,0,0,1309.219,1321.7Zm-2.376,9.276a.767.767,0,0,1-.431.543c-.935.343-1.887.645-2.842.929a2.621,2.621,0,0,0-1.988,2.1,29.538,29.538,0,0,1-4.139,9.957,2.559,2.559,0,0,0-.083,2.823c.452.832.879,1.681,1.251,2.551a.916.916,0,0,1-.119.81q-1.622,1.713-3.337,3.336a.914.914,0,0,1-.809.121c-.891-.385-1.755-.837-2.617-1.286a2.491,2.491,0,0,0-2.691.081,30.233,30.233,0,0,1-10.17,4.211,2.388,2.388,0,0,0-1.873,1.739c-.315,1-.674,1.983-.962,2.989a.625.625,0,0,1-.74.525c-1.548-.023-3.1-.021-4.645,0a.586.586,0,0,1-.679-.5c-.283-.981-.631-1.943-.933-2.919a2.485,2.485,0,0,0-1.961-1.842,29.983,29.983,0,0,1-10.1-4.187,2.492,2.492,0,0,0-2.69-.1c-.862.449-1.749.853-2.6,1.317a.641.641,0,0,1-.9-.158q-1.59-1.64-3.233-3.229a.679.679,0,0,1-.173-.964c.423-.763.759-1.573,1.189-2.332a2.775,2.775,0,0,0-.113-3.156,27.542,27.542,0,0,1-3.255-6.874c-.315-1-.562-2.016-.809-3.033a2.487,2.487,0,0,0-1.8-1.911c-1-.312-2-.622-2.98-.987a.83.83,0,0,1-.452-.6q-.056-2.4,0-4.793a.834.834,0,0,1,.466-.589c.98-.365,1.981-.676,2.98-.989a2.436,2.436,0,0,0,1.783-1.923,30.027,30.027,0,0,1,4.187-10.1,2.523,2.523,0,0,0,.083-2.757c-.446-.836-.835-1.7-1.283-2.536a.644.644,0,0,1,.136-.906q1.67-1.613,3.284-3.283a.643.643,0,0,1,.906-.14c.856.46,1.74.87,2.6,1.315a2.446,2.446,0,0,0,2.623-.079,30.529,30.529,0,0,1,10.24-4.237,2.338,2.338,0,0,0,1.823-1.695c.318-1,.669-1.984.967-2.987.116-.389.263-.573.711-.564,1.573.03,3.147-.006,4.719.032a.831.831,0,0,1,.6.449c.366.98.675,1.981.987,2.98a2.436,2.436,0,0,0,1.911,1.8,30.325,30.325,0,0,1,10.169,4.214,2.447,2.447,0,0,0,2.623.1c.864-.446,1.749-.852,2.6-1.317a.682.682,0,0,1,.964.169q1.558,1.619,3.179,3.177a.724.724,0,0,1,.185,1.026c-.424.762-.761,1.572-1.19,2.331a2.731,2.731,0,0,0,.109,3.089,27.556,27.556,0,0,1,3.26,6.871c.313,1,.579,2.012.816,3.031a2.521,2.521,0,0,0,1.842,1.963c1.139.356,2.27.734,3.418,1.108C1306.862,1327.484,1306.876,1329.231,1306.843,1330.977Z" transform="translate(-1234.633 -1290.181)" fill="#fff" stroke="rgba(0,0,0,0)" stroke-width="0.8"/>
    <path id="Caminho_71" data-name="Caminho 71" d="M1350.236,1381.026a24.718,24.718,0,1,0,24.727,24.733A24.81,24.81,0,0,0,1350.236,1381.026Zm-.066,44.942a20.223,20.223,0,1,1,20.3-20.135A20.291,20.291,0,0,1,1350.17,1425.968Z" transform="translate(-1311.875 -1367.391)" fill="#fff" stroke="rgba(0,0,0,0)" stroke-width="0.8"/>
    <path id="Caminho_72" data-name="Caminho 72" d="M1451.737,1450.611c1.358-.162,2.358.762,2.522,2.331a2.239,2.239,0,0,0,4.472-.239,6.233,6.233,0,0,0-3.112-5.476c-1.16-.653-1.669-1.342-1.355-2.614,0-.449.01-.9,0-1.348a2.245,2.245,0,1,0-4.487-.024c-.02.8-.042,1.6.007,2.4a1.056,1.056,0,0,1-.728,1.167,6.353,6.353,0,0,0-3.762,5.765,6.5,6.5,0,0,0,3.375,6.088,9.307,9.307,0,0,0,3.725.978,2.183,2.183,0,0,1,1.841,2.36,2.243,2.243,0,0,1-4.46.083,7.367,7.367,0,0,0-.1-.74,2.229,2.229,0,0,0-4.406.519,5.973,5.973,0,0,0,2.849,5.378,2.854,2.854,0,0,1,1.7,3.056,2.112,2.112,0,0,0,2.192,2.1,2.246,2.246,0,0,0,2.24-2.085,7.788,7.788,0,0,0,.006-1.347.988.988,0,0,1,.685-1.122,6.377,6.377,0,0,0,3.767-5.846,6.51,6.51,0,0,0-3.391-6.01,8.838,8.838,0,0,0-3.653-.957,2.171,2.171,0,0,1-1.9-2.232A2.214,2.214,0,0,1,1451.737,1450.611Z" transform="translate(-1413.654 -1418.307)" fill="#fff" stroke="rgba(0,0,0,0)" stroke-width="0.8"/>
  </g>
</svg>
