<svg xmlns="http://www.w3.org/2000/svg" width="154" height="154" viewBox="0 0 154 154">
  <g id="Grupo_153" data-name="Grupo 153" transform="translate(-1021 -722)">
    <circle id="Elipse_20" data-name="Elipse 20" cx="77" cy="77" r="77" transform="translate(1021 722)" fill="#264b73" opacity="0.5"/>
    <g id="Grupo_122" data-name="Grupo 122" transform="translate(243.995 -171.029)">
      <path id="Caminho_116" data-name="Caminho 116" d="M897.654,981.355a5.7,5.7,0,0,0-2.27-4.711,18.4,18.4,0,0,0-8.087-3.379,41.608,41.608,0,0,0-12.562-.606l-.106.006a1.932,1.932,0,0,1-1.565-.811l-.09-.157a139.426,139.426,0,0,0-7.813-14.471l-.1-.228a2.923,2.923,0,0,1-.116-.531l-.282-2.311,1.87,1.386c.328.244.644.481.951.714.677.511,1.314.991,1.973,1.439a3.487,3.487,0,0,0,1.249.6,1.585,1.585,0,0,0,1.7-.975,1.666,1.666,0,0,0-.508-2.008c-.819-.64-1.647-1.249-2.474-1.857l-3.165-2.36,1.071-.8c.452-.338.9-.667,1.357-.995,1.056-.767,2.054-1.491,2.993-2.293a2.822,2.822,0,0,0,.83-1.416,1.3,1.3,0,0,0-.7-1.423l-.107-.061a1.563,1.563,0,0,0-1.829.082l-1.029.751c-1.4,1.027-2.856,2.087-4.388,3.089l-2.84,1.858,1.473-3.314c.087-.2.175-.4.271-.594l8.639-17.311a2.142,2.142,0,0,0,.119-1.908,1.413,1.413,0,0,0-1.075-.748,2.643,2.643,0,0,0-1.514.3c-3.528,1.838-7.035,3.708-10.541,5.576l-4.852,2.565a.788.788,0,0,1-1.01-.239l-3.376-4.734c-.632-.891-1.265-1.781-1.908-2.663l-.057-.086a1.685,1.685,0,0,0-2.306-.608,1.716,1.716,0,0,0-.6.6c-1.094,1.515-2.124,2.964-3.153,4.412l-1.594,2.236c-.1.139-.2.277-.314.421l-.73.985-11.558-6.157c-1.526-.819-3.053-1.638-4.593-2.432a1.705,1.705,0,0,0-1.312-.239,1.638,1.638,0,0,0-1.022.739,1.662,1.662,0,0,0-.24.723,3.041,3.041,0,0,0,.381,1.425c3.394,6.854,6.858,13.786,10.316,20.645a2.408,2.408,0,0,1-.254,2.777,113.954,113.954,0,0,0-15.373,30.523,43.2,43.2,0,0,0-1.935,9.318,3.573,3.573,0,0,1-.138.556v4.193a.715.715,0,0,0,.015.146c.066.33.126.662.187.993a23.84,23.84,0,0,0,.51,2.356c1.495,5.127,4.964,8.184,10.607,9.349.669.137,1.346.241,2.022.343.3.047.6.093.907.142h37.321a.792.792,0,0,0,.153-.015l1.2-.237c1.147-.23,2.332-.467,3.516-.65l.085-.013.087,0a6.537,6.537,0,0,1,1.67.25q1.942.273,3.887.534l.94.128h5.205a.7.7,0,0,0,.1-.007c.471-.064.942-.124,1.415-.185,1.1-.14,2.233-.285,3.33-.478a21.3,21.3,0,0,0,7.648-2.653,6.5,6.5,0,0,0,3.4-4.311,6.716,6.716,0,0,0,.074-1.173c0-2.272,0-4.522,0-6.772,0-4.405-.008-8.811.025-13.217ZM828.56,936.931l-1.179-2.359a.787.787,0,0,1,.075-.826l.294-.393a.789.789,0,0,1,1-.223l5.091,2.7q2.346,1.255,4.7,2.5l.1.062a1.726,1.726,0,0,0,2.4-.435,1.873,1.873,0,0,0,.1-.165l.067-.106c1.005-1.4,2-2.8,3.019-4.228l1.446-2.028a.788.788,0,0,1,1.284,0l4.27,5.984c1.054,1.474,1.585,1.6,3.161.761l8.462-4.507c.185-.1.375-.193.6-.3,0,0,1-.471,1.564.079a.735.735,0,0,1,.215.885,5.849,5.849,0,0,1-.24.739l-2.017,4.045q-2.268,4.54-4.527,9.089a1.917,1.917,0,0,1-1.779,1.2c-.047,0-.094,0-.142-.005q-4.485-.011-8.97-.009-5.769,0-11.539-.017a2.037,2.037,0,0,1-1.574-.757l-.115-.178Q831.427,942.7,828.56,936.931Zm32.3,69.815a5.679,5.679,0,0,1-.568.035l-7.956,0c-2.608,0-5.249.005-7.9.005-4.893,0-9.835-.008-14.727-.035a22.864,22.864,0,0,1-5.39-.666c-4.32-1.087-6.875-4.095-7.393-8.7a33.021,33.021,0,0,1,1.647-13.2,97.735,97.735,0,0,1,9.658-21.56c1.426-2.446,3.021-4.852,4.564-7.177l1.086-1.639a2.528,2.528,0,0,1,1.857-1c7.041-.035,14.13-.036,21.121,0a2.468,2.468,0,0,1,1.777.817l.067.086A116.531,116.531,0,0,1,869.392,972.1l.043.109a2.031,2.031,0,0,1,.084.355l.108.773-.722.293c-.421.172-.84.332-1.255.491a24.617,24.617,0,0,0-2.586,1.1,13.914,13.914,0,0,0-2.545,1.705l-.227.2a5.122,5.122,0,0,0-1.759,4.065c.036,6.519.034,13.1-.005,19.585a6.032,6.032,0,0,0,1.345,4.312l1.225,1.49Zm3.239-26.8a23.115,23.115,0,0,1,2.319-1.615l.18-.092a21.156,21.156,0,0,1,7.078-2.017,35.184,35.184,0,0,1,14.8.855,22.442,22.442,0,0,1,4.645,2.152,1.9,1.9,0,0,1,1.083,1.4,2.084,2.084,0,0,1-.955,1.685,12.552,12.552,0,0,1-4.979,2.288,35.553,35.553,0,0,1-19.767-.45,16.964,16.964,0,0,1-2.967-1.41c-.031-.019-.063-.039-.092-.06a9.944,9.944,0,0,1-1.457-1.267l-.749-.794Zm30.163,21.495a3.407,3.407,0,0,1-1.721,2.339,24.677,24.677,0,0,1-4.246,1.82,34.772,34.772,0,0,1-19.73-.4c-.027-.008-.054-.018-.08-.028a19.513,19.513,0,0,1-3.4-1.717,2.394,2.394,0,0,1-1.154-2.4c.026-.61.018-1.312.011-2.048l0-1.306a.788.788,0,0,1,1.073-.737h0a38.975,38.975,0,0,0,28.154,0l1.076-.417V998c0,.361.006.715.012,1.062.007.426.014.84.01,1.25l.227-.056Zm-.087-10.143a2.928,2.928,0,0,1-1.463,1.9,24.008,24.008,0,0,1-4.652,1.956,34.833,34.833,0,0,1-19.765-.562,14.619,14.619,0,0,1-3.359-1.806l-.093-.076a2.706,2.706,0,0,1-.876-1.893c-.058-.764-.046-1.556-.035-2.322,0-.3.007-.591.007-.886v-1.444l1.075.4a40.1,40.1,0,0,0,28.144.006l1.027-.384.062,1.373c.033.733.04,1.472.019,2.21l.289-.073Z" fill="#fff" stroke="#fff" stroke-width="1"/>
      <path id="Caminho_117" data-name="Caminho 117" d="M846.817,977.478a8.566,8.566,0,0,1-2.309-.357,3.518,3.518,0,0,1-2.559-3.294,3.624,3.624,0,0,1,2.515-3.256,5.816,5.816,0,0,1,6,1.529,2.643,2.643,0,0,0,2.867.925,2.562,2.562,0,0,0,1.937-2.3,2.886,2.886,0,0,0-.886-2.362,9.73,9.73,0,0,0-4.522-2.8c-.8-.243-.933-.639-.955-1.368a4.741,4.741,0,0,0-.441-2.005,2.575,2.575,0,0,0-2.991-1.143,2.521,2.521,0,0,0-1.9,2.57c.123,1.226-.339,1.67-1.439,2.13a8.608,8.608,0,0,0-4.461,12.27,9.581,9.581,0,0,0,8.356,4.832,5.47,5.47,0,0,1,3.309,1.027,3.2,3.2,0,0,1,.036,5.206,4.9,4.9,0,0,1-5.732.218c-.5-.356-.947-.79-1.421-1.184a2.694,2.694,0,0,0-3.63,3.981l.078.069a11.712,11.712,0,0,0,5.033,3.045v1.021a2.755,2.755,0,0,0,2.554,2.943l.134.006a2.7,2.7,0,0,0,2.682-3.009,1.157,1.157,0,0,1,.914-1.358l.017,0a8.806,8.806,0,0,0,5.765-10.6A9.7,9.7,0,0,0,846.817,977.478Z" fill="#fff" stroke="#fff" stroke-width="1"/>
    </g>
  </g>
</svg>
