<svg xmlns="http://www.w3.org/2000/svg" width="154" height="154" viewBox="0 0 154 154">
  <g id="Grupo_151" data-name="Grupo 151" transform="translate(-1021.805 -486)">
    <circle id="Elipse_19" data-name="Elipse 19" cx="77" cy="77" r="77" transform="translate(1021.805 486)" fill="#264b73" opacity="0.5"/>
    <g id="Grupo_95" data-name="Grupo 95" transform="translate(-1733.566 -287.406)">
      <path id="Caminho_78" data-name="Caminho 78" d="M2871.623,846.217c-7.462-7.429-16.525-9.991-26.919-8.154.019-.241.016-.418.048-.588a26.445,26.445,0,0,0,.119-10.259c-2.36-11.937-9.375-19.783-20.97-23.454a50.527,50.527,0,0,0-5.7-1.131h-4.568c-1.9.37-3.833.614-5.691,1.131a29.336,29.336,0,0,0-21.2,25.316,3.9,3.9,0,0,1-.155.6v4.569c.055.233.112.465.166.7a57.4,57.4,0,0,0,1.682,7.167,29.189,29.189,0,0,0,30.984,19.02c.859-.1,1.714-.235,2.6-.358-4.067,16.846,9.038,34.66,27.406,35.385a29.332,29.332,0,0,0,30.7-28.676A28.346,28.346,0,0,0,2871.623,846.217Zm-48.052,8.349a21.381,21.381,0,0,1-7.6,1.287,23.853,23.853,0,1,1,23.461-27.931,23.134,23.134,0,0,1-.933,11.692,1.887,1.887,0,0,1-.836.961,29.713,29.713,0,0,0-13.125,13.157A1.914,1.914,0,0,1,2823.571,854.566Zm27.151,36.14a23.855,23.855,0,1,1,23.929-23.835A23.889,23.889,0,0,1,2850.722,890.706Z" transform="translate(0)" fill="#fff"/>
      <path id="Caminho_79" data-name="Caminho 79" d="M3058.115,821.033a16.992,16.992,0,0,1,4.413.989c4.977,2.145,7.2,6.869,6.362,13.167-.659-.738-1.29-1.5-1.983-2.207a2.743,2.743,0,0,0-4.121-.212,2.8,2.8,0,0,0,.223,4.065q3.377,3.4,6.776,6.785a2.763,2.763,0,0,0,4.259.014q3.4-3.378,6.78-6.781a2.806,2.806,0,0,0,.184-4.133,2.762,2.762,0,0,0-4.062.239c-.706.7-1.4,1.406-2.184,2.2-.088-1.726-.1-3.3-.258-4.856a16.534,16.534,0,0,0-16.115-14.792,2.815,2.815,0,0,0-3.08,2.575C3055.222,819.711,3056.348,820.792,3058.115,821.033Z" transform="translate(-203.124 -9.732)" fill="#fff"/>
      <path id="Caminho_80" data-name="Caminho 80" d="M2816.332,1077.415c-.3-.025-.607-.043-.91-.071a11.493,11.493,0,0,1-10.153-14.034c.764.765,1.481,1.5,2.214,2.214a2.747,2.747,0,0,0,4,.161,2.775,2.775,0,0,0-.075-4q-3.46-3.514-6.972-6.976a2.74,2.74,0,0,0-4.129.032q-3.468,3.441-6.905,6.913a2.776,2.776,0,0,0-.147,4,2.732,2.732,0,0,0,4-.092c.74-.719,1.429-1.49,2.142-2.238l.249.115c0,1-.042,2,.007,2.991a16.713,16.713,0,0,0,7.156,13.52,16.107,16.107,0,0,0,9.334,2.954,2.745,2.745,0,1,0,.2-5.485Z" transform="translate(-4.445 -189.847)" fill="#fff"/>
      <path id="Caminho_81" data-name="Caminho 81" d="M3023.934,1028.763a29.172,29.172,0,0,0-5.075-1.064c-2.135-.182-4.3-.044-6.516-.044l1.174-5.291c1.029,0,2.032.009,3.035,0a2.751,2.751,0,1,0,.029-5.49c-.967-.013-1.934,0-2.953,0-.1-.861-.2-1.64-.273-2.421a11.083,11.083,0,0,1-.063-1.55,3.475,3.475,0,0,1,2.625-3.146,3.653,3.653,0,0,1,3.727,1.125,2.7,2.7,0,0,0,3.925.065,2.792,2.792,0,0,0-.044-3.943,9.114,9.114,0,0,0-15.735,6.866c.079.964.168,1.928.262,3.005-.7,0-1.336-.018-1.966,0a2.742,2.742,0,0,0,.034,5.484c.563.017,1.126,0,1.739,0a22.191,22.191,0,0,1-2.431,7.268,2.89,2.89,0,0,0,.064,3.486c.881,1.1,2.018,1.1,3.312.838a54.018,54.018,0,0,1,6.2-.969,19.56,19.56,0,0,1,7.283,1,2.764,2.764,0,0,0,3.583-1.806A2.7,2.7,0,0,0,3023.934,1028.763Z" transform="translate(-163.878 -152.289)" fill="#fff"/>
      <path id="Caminho_82" data-name="Caminho 82" d="M2875.806,862.477c-2.037-.083-4.08,0-6.119-.047a2.61,2.61,0,1,1,.041-5.209c1.34-.018,2.682.049,4.019-.017a5.717,5.717,0,0,1,4.676,1.546,2.576,2.576,0,0,0,3.567-.179,2.687,2.687,0,0,0,.342-3.5,7.276,7.276,0,0,0-1.288-1.283,9.806,9.806,0,0,0-5.762-2.109c0-.823.027-1.581-.006-2.336a2.749,2.749,0,1,0-5.5.016c-.025.756,0,1.513,0,2.339-.337.022-.518.03-.7.045a8.106,8.106,0,0,0,.391,16.2c1.947.058,3.9,0,5.846.02a2.591,2.591,0,1,1,.017,5.171c-1.674.024-3.35-.025-5.023.017a6.083,6.083,0,0,1-3.479-.847,2.693,2.693,0,0,0-3.676.935,2.627,2.627,0,0,0,.828,3.688,17.5,17.5,0,0,0,3.4,1.473,12.852,12.852,0,0,0,2.39.329c0,.349,0,.647,0,.946,0,.487-.015.976.012,1.461a2.74,2.74,0,0,0,5.478.056c.057-.832.01-1.672.01-2.522.444-.035.714-.048.983-.079a8.059,8.059,0,0,0,6.547-11.482A7.639,7.639,0,0,0,2875.806,862.477Z" transform="translate(-56.584 -33.189)" fill="#fff"/>
    </g>
  </g>
</svg>
