<svg xmlns="http://www.w3.org/2000/svg" width="127.966" height="108.412" viewBox="0 0 127.966 108.412">
  <g id="Grupo_142" data-name="Grupo 142" transform="translate(0 0)">
    <path id="Caminho_133" data-name="Caminho 133" d="M2872.974,1040.916h-7.094v25.652h7.094Z" transform="translate(-2759.199 -1003.149)" fill="#fff"/>
    <path id="Caminho_134" data-name="Caminho 134" d="M2821.044,1075.343h7.087v-23.076h-7.087Z" transform="translate(-2728.807 -1011.895)" fill="#fff"/>
    <path id="Caminho_135" data-name="Caminho 135" d="M2783.168,1063.471h-7.06V1084h7.06Z" transform="translate(-2698.346 -1020.528)" fill="#fff"/>
    <path id="Caminho_136" data-name="Caminho 136" d="M2626.308,1074.256q-3.746-1.888-7.565-3.631c-.925-.422-1.295-.219-1.938.6-.874,1.11-1.778,2.2-2.66,3.3a1.412,1.412,0,0,1-1.812.458,24.757,24.757,0,0,1-12.4-10.649,1.426,1.426,0,0,1,.147-1.853c.753-.914,1.436-1.886,2.148-2.834a1.834,1.834,0,0,0,.185-1.988c-.9-2.083-1.789-4.171-2.606-6.286-.534-1.384-1.283-2.3-2.807-1.924a3.861,3.861,0,0,0-3.409.946,10.215,10.215,0,0,0-2.951,10.109,20.339,20.339,0,0,0,3.634,7.253c5.121,7.2,11.521,12.66,20.209,15.08a10.6,10.6,0,0,0,7.127-.08c4.092-1.721,5.222-3.56,5.28-7.4A1.426,1.426,0,0,0,2626.308,1074.256Z" transform="translate(-2572.296 -1011.594)" fill="#fff"/>
    <path id="Caminho_137" data-name="Caminho 137" d="M2820.936,1173.591a1.032,1.032,0,1,0-1.047,1.778,6.879,6.879,0,0,1,2.719,3.08,10.09,10.09,0,0,1,.84,5.427,7.827,7.827,0,0,1-3.617,6.313,1.031,1.031,0,0,0,1.13,1.726,8.158,8.158,0,0,0,2.422-2.161,11.2,11.2,0,0,0,2.2-6.958,11.784,11.784,0,0,0-1.414-5.842A8.715,8.715,0,0,0,2820.936,1173.591Z" transform="translate(-2726.259 -1099.273)" fill="#fff"/>
    <path id="Caminho_138" data-name="Caminho 138" d="M2817.63,1190.127a13.381,13.381,0,0,0-.214-1.415,5.169,5.169,0,0,0-2.311-3.3,1.027,1.027,0,0,0-1.467.316,1.04,1.04,0,0,0,.368,1.436,3.345,3.345,0,0,1,.506.4,3.506,3.506,0,0,1,.993,2.228,3.822,3.822,0,0,1-1.6,3.928,1,1,0,0,0-.277,1.354,1.012,1.012,0,0,0,1.321.405,3.486,3.486,0,0,0,.695-.469A6.043,6.043,0,0,0,2817.63,1190.127Z" transform="translate(-2722.442 -1106.914)" fill="#fff"/>
    <path id="Caminho_139" data-name="Caminho 139" d="M2661.5,955.1q-11.023-10.967-22-21.984c-.3-.3-.553-.662-.827-.995h-56.425v20.305a36.081,36.081,0,0,0-43.141,51.584,1.872,1.872,0,0,1,.133,1.261c-1.066,4.02-2.176,8.029-3.272,12.041-.529,1.936-1.056,3.872-1.613,5.913.347-.075.587-.118.822-.179,5.879-1.538,11.756-3.084,17.641-4.6a1.859,1.859,0,0,1,1.2.123,35.609,35.609,0,0,0,27.337,2.444q.43-.132.854-.274v19.791h80.1V1039.3q0-41.1.018-82.208A2.551,2.551,0,0,0,2661.5,955.1Zm-20.8-10.422,8.983,9.035H2640.7Zm-64.137,71.284a29.389,29.389,0,0,1-21.478-3.8,1.821,1.821,0,0,0-1.553-.231c-3.455.934-6.92,1.828-10.535,2.776.765-2.8,1.381-5.506,2.261-8.123a5.9,5.9,0,0,0-.61-5.31,29.939,29.939,0,1,1,31.915,14.691Zm78.418,17.381h-65.455c-.017-.357-.044-.667-.044-.977q0-7.5-.012-15a36.053,36.053,0,0,0,0-61.581c.021-5.423.011-10.853.011-16.349h43.872v21.589h21.629Z" transform="translate(-2534.356 -932.12)" fill="#fff"/>
    <path id="Caminho_140" data-name="Caminho 140" d="M2785.072,1177.071a.511.511,0,0,0-.418.169c-1.3,1.313-2.616,2.617-3.92,3.928a.936.936,0,0,1-.712.295c-1.149-.007-2.3,0-3.448,0a.742.742,0,0,0-.823.816q0,2.832,0,5.663a.742.742,0,0,0,.832.83c1.127,0,2.254.008,3.381,0a1.049,1.049,0,0,1,.811.334q1.945,1.963,3.907,3.909a.407.407,0,0,0,.218.14c.355.015.711.007,1.076.007v-16.08C2785.662,1177.074,2785.367,1177.082,2785.072,1177.071Z" transform="translate(-2697.988 -1101.625)" fill="#fff"/>
  </g>
</svg>
