<svg xmlns="http://www.w3.org/2000/svg" width="69.97" height="70" viewBox="0 0 69.97 70">
  <g id="Icons" transform="translate(-13 -13)">
    <path id="Caminho_41" data-name="Caminho 41" d="M16,14H14V82H81.97V80H16Z" fill="#00335e" stroke="#1b365d" stroke-width="2"/>
    <path id="Caminho_42" data-name="Caminho 42" d="M61,60c-4.945,0-8.37-8.889-11.683-17.485C45.846,33.508,42.567,25,37,25c-7.351,0-9.607,9.167-11.6,17.255l-.371,1.5,1.94.486.374-1.51C29.159,35.358,31.217,27,37,27c4.194,0,7.375,8.253,10.451,16.234C51.006,52.46,54.683,62,61,62c7.627,0,10.965-15.683,11.862-20.873,0-.01.013-.01.018,0L77.134,48.5l1.732-1-6-10.394L62.5,43.088l1,1.732,7.418-4.278a.009.009,0,0,1,.015.009C69.853,46.9,66.49,60,61,60Z" fill="#00335e" stroke="#1b365d" stroke-width="2"/>
  </g>
</svg>
