<svg xmlns="http://www.w3.org/2000/svg" width="80.966" height="80.93" viewBox="0 0 80.966 80.93">
  <g id="Grupo_127" data-name="Grupo 127" transform="translate(0.756 0.75)">
    <path id="Caminho_118" data-name="Caminho 118" d="M1168.059,1092.356q-15.342,10.087-30.678,20.188a1.874,1.874,0,0,1-2.2.08q-5.587-3.009-11.186-6-5.121-2.739-10.238-5.485a2.273,2.273,0,0,0-2.587.1c-6,3.954-12.086,7.931-18.112,11.842a2.333,2.333,0,0,0-1.2,2.141c.02,10.915.024,21.953.013,32.838,0,1.591.683,2.271,2.284,2.272h4.981c1.733,0,3.467,0,5.2.023a3.2,3.2,0,0,1,1.726.554,17.269,17.269,0,0,0,20.057.026,3.309,3.309,0,0,1,1.806-.581c13.516-.024,27.209-.024,40.714,0,1.388-.014,2.2-.4,2.673-1.375v-55.835a7,7,0,0,0-.636-.884C1170.468,1092.047,1169.7,1091.276,1168.059,1092.356Zm-57.335,26.46V1107.1a1.932,1.932,0,0,1,2.963-1.792c2.489,1.331,5.024,2.683,7.56,4.032a1.5,1.5,0,0,1,.934,1.495c-.015,2-.014,4.047-.013,6.092v2.456a2.8,2.8,0,0,1-.031.361l-.11.982-.779-.236a17.683,17.683,0,0,0-9.678-.155l-.856.229Zm-15.148,27.78v-1.483q0-14.074-.012-28.146a1.816,1.816,0,0,1,.951-1.732c2.316-1.492,4.661-3.026,7.066-4.6l3.446-2.252v1.25c0,.986-.01,1.958-.019,2.92-.022,2.27-.045,4.414.059,6.576a5.36,5.36,0,0,1-2.219,4.91,16.968,16.968,0,0,0-3.919,20.945c.073.142.134.278.2.436l.531,1.177Zm29.993-.033a13.415,13.415,0,0,1-9.46,3.871h-.137a13.507,13.507,0,1,1,9.6-3.87Zm11.725.015h-6.69l.428-.954c.123-.274.249-.544.374-.814.266-.571.517-1.112.734-1.667a17.228,17.228,0,0,0-5.459-19.764,1.873,1.873,0,0,1-.818-1.677c.018-2.131.016-4.3.013-6.517v-3.347l4.594,2.438c1.506.807,3.012,1.614,4.529,2.4a11,11,0,0,0,1.2.5c.218.081.441.165.669.257l.424.171Zm15.113.034h-11.384v-1.526q0-14.7-.01-29.394a1.846,1.846,0,0,1,.945-1.766c2.332-1.508,4.689-3.061,7.084-4.638l3.365-2.214Zm15.179-.02h-11.414v-1.505q0-19.674-.014-39.347a1.885,1.885,0,0,1,.986-1.8c2.127-1.375,4.281-2.8,6.436-4.217l2.282-1.5c.142-.093.287-.178.463-.281l1.261-.749Z" transform="translate(-1091.862 -1074.701)" fill="#fff" stroke="#fff" stroke-width="1.5"/>
    <path id="Caminho_119" data-name="Caminho 119" d="M1169.975,1066.519h-10.123c-1.493.741-1.552,1.538-1.388,2.291.2.933,1,1.405,2.364,1.406h4.471l-2.2,1.513c-.161.113-.277.194-.4.271q-12.656,8.323-25.314,16.66a1.847,1.847,0,0,1-2.177.091c-3.684-1.977-7.43-3.98-11.175-5.984q-5.148-2.753-10.294-5.514a2.2,2.2,0,0,0-2.521.082c-1.317.891-2.623,1.739-3.928,2.587l-14.378,9.389a1.888,1.888,0,0,0-.962,2.148,1.775,1.775,0,0,0,1.073,1.225,2.2,2.2,0,0,0,1.962-.315q8.317-5.421,16.617-10.875a1.835,1.835,0,0,1,2.126-.068q4.3,2.316,8.616,4.618,6.3,3.373,12.6,6.766a2.662,2.662,0,0,0,3.062-.125c9.217-6.1,18.566-12.255,27.83-18.316.149-.1.3-.184.473-.291l1.325-.809v1.206c0,.365,0,.718-.006,1.061-.006.72-.012,1.4.011,2.084a1.8,1.8,0,0,0,1.794,1.807h.006a1.8,1.8,0,0,0,.806-.195,6.011,6.011,0,0,0,1.084-1.275v-10.085A2.757,2.757,0,0,0,1169.975,1066.519Z" transform="translate(-1091.873 -1066.519)" fill="#fff" stroke="#fff" stroke-width="1.5"/>
    <path id="Caminho_120" data-name="Caminho 120" d="M1127.912,1152.442a12.257,12.257,0,0,0-3.053-.786c-1.447-.286-1.827-1.109-1.729-1.729l.032-.124a1.834,1.834,0,0,1,2.219-1.135,5.292,5.292,0,0,1,1.653.912,1.89,1.89,0,0,0,2.084.411c.538-.231,1.042-.623,1.123-1.909a3.4,3.4,0,0,0-.481-.963,9.969,9.969,0,0,0-1.9-1.465,2,2,0,0,1-1.11-1.439,1.785,1.785,0,0,0-1.76-1.406,1.922,1.922,0,0,0-1.829,1.51,2.084,2.084,0,0,1-.874,1.219l-.06.035a5.208,5.208,0,0,0-2.777,5.274,5.394,5.394,0,0,0,4.313,4.35,15.921,15.921,0,0,1,1.749.235l.079.02a2.248,2.248,0,0,1,.917.669c.075.078.148.157.225.225l.56.493-.544.509c-.078.073-.152.157-.226.241a2.165,2.165,0,0,1-.967.725l-.111.023a2.658,2.658,0,0,1-1.572-.3,4.359,4.359,0,0,1-.868-.68,1.871,1.871,0,0,0-2.487.193,1.8,1.8,0,0,0,.041,2.533,9.734,9.734,0,0,0,1.043.828c.284.206.568.411.836.634a2.638,2.638,0,0,1,.816,1.049l.03.086a1.873,1.873,0,0,0,1.8,1.367h.041a1.76,1.76,0,0,0,1.719-1.357,1.939,1.939,0,0,1,1.142-1.367,4.89,4.89,0,0,0,2.673-4.428A4.727,4.727,0,0,0,1127.912,1152.442Z" transform="translate(-1100.78 -1091.216)" fill="#fff" stroke="#fff" stroke-width="1.5"/>
  </g>
</svg>
