<svg xmlns="http://www.w3.org/2000/svg" width="19.863" height="14.468" viewBox="0 0 19.863 14.468">
  <path id="Caminho_141" data-name="Caminho 141" d="M17.479,4.71H3.383A2.886,2.886,0,0,0,.5,7.593v8.7a2.886,2.886,0,0,0,2.883,2.883h14.1a2.886,2.886,0,0,0,2.883-2.883v-8.7A2.886,2.886,0,0,0,17.479,4.71Zm-.852,1.922-.885.7-4.716,3.723a.963.963,0,0,1-1.192,0L5.286,7.459,4.238,6.632Zm.852,10.623H3.383a.962.962,0,0,1-.961-.961V7.654l6.222,4.911a2.882,2.882,0,0,0,3.575,0L18.44,7.656v8.638A.962.962,0,0,1,17.479,17.256Z" transform="translate(-0.5 -4.71)" fill="#1b365d"/>
</svg>
