<svg xmlns="http://www.w3.org/2000/svg" width="112.946" height="112.95" viewBox="0 0 112.946 112.95">
  <g id="Grupo_62" data-name="Grupo 62" transform="translate(863.074 -575.054)">
    <path id="Caminho_57" data-name="Caminho 57" d="M-760.59,589.424a41.9,41.9,0,0,0-55.071-7.167,40.363,40.363,0,0,0-17.166,24.023c-3.626,14.042-.557,26.727,8.44,38.074-2.733,2.727-5.4,5.407-8.106,8.053a1.063,1.063,0,0,1-.934.147c-3.555-1.441-6.571-.662-9.238,2.029q-8.345,8.419-16.77,16.756a11.6,11.6,0,0,0-3.64,5.636V679.4a12.791,12.791,0,0,0,8.6,8.6h2.427a10.024,10.024,0,0,0,4.461-2.468c6.062-6.1,12.167-12.159,18.23-18.259a7.491,7.491,0,0,0,1.733-8.8c-.27-.643-.023-.928.359-1.306,2.217-2.2,4.432-4.4,6.623-6.632a11.7,11.7,0,0,0,1.026-1.385,42.2,42.2,0,0,0,58.939-4.2C-746.641,628.708-746.613,605.282-760.59,589.424ZM-835.6,663.54q-8.328,8.361-16.689,16.689c-.278.278-.594.518-.92.8a4.257,4.257,0,0,1-.691-.461c-2.865-2.953-2.791-1.913-.172-4.562,5.376-5.437,10.8-10.823,16.213-16.229,1.139-1.139,1.149-1.148,2.24-.036C-833.437,661.958-833.42,661.355-835.6,663.54Zm43.322-11.367a35.093,35.093,0,0,1-34.964-35.06A35.074,35.074,0,0,1-792.1,582.131a35.077,35.077,0,0,1,34.907,35.219A35.088,35.088,0,0,1-792.275,652.174Z" transform="translate(0 0)" fill="#fff"/>
    <path id="Caminho_58" data-name="Caminho 58" d="M-648.771,654.186a41.092,41.092,0,0,0-5.414-1.062,10.691,10.691,0,0,1-3.266-1.049c-3.043-1.867-3-5.671-.005-7.625a7.415,7.415,0,0,1,9.231,1.511,3.529,3.529,0,0,0,4.241.954,3.223,3.223,0,0,0,1.829-3.8,5.735,5.735,0,0,0-1.894-2.806,41.562,41.562,0,0,0-5.573-3.09c-.53-.263-.811-.443-.8-1.063a9.722,9.722,0,0,0-.151-2.165,3.422,3.422,0,0,0-3.682-2.716,3.474,3.474,0,0,0-3.143,3.333c-.027.724,0,1.45,0,2.247-.557.2-1.047.341-1.511.542-4.442,1.927-7.322,5.147-7.721,10.078-.371,4.581,1.754,8.057,5.509,10.553a12.407,12.407,0,0,0,6.459,2.062,8.084,8.084,0,0,1,4.752,1.3,4.352,4.352,0,0,1,.061,7.225,6.589,6.589,0,0,1-7.729.1c-.7-.516-1.312-1.15-2.006-1.675a3.464,3.464,0,0,0-4.648.41,3.4,3.4,0,0,0-.034,4.659,14.233,14.233,0,0,0,6.083,4.086,1.148,1.148,0,0,1,.985,1.386,5.843,5.843,0,0,0,.03.979,3.423,3.423,0,0,0,2.866,3.12c2.323.382,4.167-1.333,4.056-3.9A1.473,1.473,0,0,1-649.062,676a11.776,11.776,0,0,0,6.7-5.6C-639,664.316-641.948,656.719-648.771,654.186Z" transform="translate(-137.901 -39.473)" fill="#fff"/>
  </g>
</svg>
