<svg xmlns="http://www.w3.org/2000/svg" width="154" height="154" viewBox="0 0 154 154">
  <g id="Grupo_154" data-name="Grupo 154" transform="translate(-1021.805 -486)">
    <circle id="Elipse_19" data-name="Elipse 19" cx="77" cy="77" r="77" transform="translate(1021.805 486)" fill="#264b73" opacity="0.5"/>
    <g id="Grupo_100" data-name="Grupo 100" transform="translate(3050.625 -1347.664)">
      <path id="Caminho_86" data-name="Caminho 86" d="M-1851.847,1879.532a3.16,3.16,0,0,0-1.173-3.113q-9.258-8.779-18.515-17.559a19.771,19.771,0,0,0-2.2-1.583h-1.328a10.625,10.625,0,0,0-1.645,1.068q-9.586,9.053-19.131,18.149a3.01,3.01,0,0,0-.938,3.587,3.034,3.034,0,0,0,3.111,1.877c1.223-.021,2.447,0,3.771,0v29.392q0,19.827,0,39.653c0,2.144,1.171,3.431,3.169,3.433q12.332.018,24.665,0a3.034,3.034,0,0,0,3.083-2.306,7.456,7.456,0,0,0,.081-1.511q0-33.677,0-67.354V1882.1c.16-.077.214-.125.269-.126,1.264-.013,2.529-.006,3.793-.032A2.973,2.973,0,0,0-1851.847,1879.532Zm-13.138.442q.04,33.53.017,67.06v1.3h-18.857v-1.213q0-33.767,0-67.534c0-2.05-.565-2.922-2.52-3.728l11.951-11.359,11.978,11.374C-1864.567,1876.535-1864.987,1878.063-1864.985,1879.975Z" transform="translate(-76.369)" fill="#fff"/>
      <path id="Caminho_87" data-name="Caminho 87" d="M-1971.84,2006.323a3,3,0,0,0-3.237-3.271q-10.531-.023-21.062,0a2.942,2.942,0,0,0-3.113,2.36,7.947,7.947,0,0,0-.084,1.417q-.007,13.14,0,26.28,0,8.633,0,17.266c0,3.194-.016,6.388.007,9.582a3.015,3.015,0,0,0,3.135,3.284q10.626.022,21.251,0a2.984,2.984,0,0,0,3.1-2.937c.027-.378.017-.759.017-1.138q0-23.243,0-46.487C-1971.832,2010.561-1971.813,2008.442-1971.84,2006.323Zm-6.135,50.8h-15.239v-47.946h15.239Z" transform="translate(0 -108.812)" fill="#fff"/>
      <path id="Caminho_88" data-name="Caminho 88" d="M-1704.525,2061.4a13.231,13.231,0,0,0-9.212-3.634,7.528,7.528,0,0,1-5.131-1.87,5.219,5.219,0,0,1,.252-8.178,8.411,8.411,0,0,1,11.176,1.212,3.027,3.027,0,0,0,3.375,1.09,3.008,3.008,0,0,0,1.532-4.635,12.12,12.12,0,0,0-5.6-4.063c-.864-.365-2.084-.426-2.542-1.059s-.181-1.825-.248-2.769a2.968,2.968,0,0,0-3.162-2.943,3.014,3.014,0,0,0-2.89,3.138,14.065,14.065,0,0,0,.065,1.705c.073.658-.071,1.049-.817,1.19a8.5,8.5,0,0,0-1.866.671c-5.256,2.371-8.177,7.724-6.923,13.057,1.162,4.941,4.539,7.833,9.329,9.084a46.152,46.152,0,0,0,4.782.6,6.2,6.2,0,0,1,5.474,6.226,4.928,4.928,0,0,1-1.411,3.021,7.562,7.562,0,0,1-9.617,1.062c-.824-.579-1.54-1.31-2.339-1.928a3.006,3.006,0,0,0-4.111.377,2.942,2.942,0,0,0,.04,4.053c1.6,1.635,3.322,3.265,5.552,3.845,1.854.482,2.174,1.46,2.128,3.108a2.92,2.92,0,0,0,2.993,3.01,3.068,3.068,0,0,0,3.032-3.119,12.5,12.5,0,0,0-.065-1.705c-.059-.52.173-.7.631-.859a19.7,19.7,0,0,0,2.892-1.157C-1699.981,2076.043-1698.673,2066.984-1704.525,2061.4Z" transform="translate(-203.447 -132.33)" fill="#fff"/>
    </g>
  </g>
</svg>
