<svg id="Grupo_114" data-name="Grupo 114" xmlns="http://www.w3.org/2000/svg" width="118.583" height="102.152" viewBox="0 0 118.583 102.152">
  <path id="Caminho_97" data-name="Caminho 97" d="M-386.687,315.534V253.646h39.611v41.691h7.536c.027-.389.071-.725.071-1.06q.005-22.073,0-44.146c0-2.793-1.507-4.233-4.323-4.23-15.361.019-30.723.089-46.084.01a4.267,4.267,0,0,0-4.572,4.521c.073,21.225.041,42.451.041,63.677v1.359h-39.8V240.459l39.834-10.692v8.493h7.6c0-4.447.006-8.8,0-13.148a3.824,3.824,0,0,0-5.1-3.923q-23.461,6.271-46.917,12.566a3.848,3.848,0,0,0-3.146,4c-.013.423,0,.847,0,1.271v76.507H-450v7.628h118.583v-7.628Z" transform="translate(450 -221.01)" fill="#fff"/>
  <path id="Caminho_98" data-name="Caminho 98" d="M-345.734,302.248h-18v7.526h18Z" transform="translate(390.376 -277.161)" fill="#fff"/>
  <path id="Caminho_99" data-name="Caminho 99" d="M-345.731,469.946h-18v7.529h18Z" transform="translate(390.375 -393.072)" fill="#fff"/>
  <path id="Caminho_100" data-name="Caminho 100" d="M-210.533,477.512h17.993v-7.561h-17.993Z" transform="translate(284.483 -393.075)" fill="#fff"/>
  <path id="Caminho_101" data-name="Caminho 101" d="M-345.706,358.2h-18v7.5h18Z" transform="translate(390.352 -315.832)" fill="#fff"/>
  <path id="Caminho_102" data-name="Caminho 102" d="M-192.46,358.249h-17.977v7.465h17.977Z" transform="translate(284.417 -315.868)" fill="#fff"/>
  <path id="Caminho_103" data-name="Caminho 103" d="M-345.8,414.272H-363.78v7.467H-345.8Z" transform="translate(390.406 -354.591)" fill="#fff"/>
  <path id="Caminho_104" data-name="Caminho 104" d="M-192.452,414.286h-17.973v7.5h17.973Z" transform="translate(284.408 -354.6)" fill="#fff"/>
  <path id="Caminho_105" data-name="Caminho 105" d="M-109.123,490.887v-7h-7.5v7Z" transform="translate(219.574 -402.71)" fill="#fff"/>
</svg>
