<svg xmlns="http://www.w3.org/2000/svg" width="77.653" height="77.514" viewBox="0 0 77.653 77.514">
  <g id="Grupo_66" data-name="Grupo 66" transform="translate(-450.197 -1297.953)">
    <path id="Caminho_68" data-name="Caminho 68" d="M753.961,1307.925a32.929,32.929,0,0,0-8.474-1.765,3.861,3.861,0,0,1-.573-.127h-4.347c-1.329.189-2.666.337-3.987.575a34.106,34.106,0,0,0-27.571,28.236,57.3,57.3,0,0,0-.388,6.19,1.257,1.257,0,0,1-.459,1.012,22.848,22.848,0,0,0-7.941,15.281,2.307,2.307,0,0,1-.124.418v3.6c.287,1.489.472,3.007.879,4.462a22.981,22.981,0,0,0,20.2,16.842,22.61,22.61,0,0,0,19.587-7.865,1.343,1.343,0,0,1,1.139-.523,34.12,34.12,0,0,0,12.056-66.333Zm15.258,19.646h-11.95a43.594,43.594,0,0,0-5.428-15.207A29.3,29.3,0,0,1,769.219,1327.571Zm-30.29-14.165c2.569-2.8,5.1-2.785,7.617.081a22.169,22.169,0,0,1,4.256,8.09c.627,1.96,1.117,3.965,1.686,6.015H733.041a41.6,41.6,0,0,1,2.455-8.429A19.351,19.351,0,0,1,738.929,1313.406Zm-5.261-1.043a29.305,29.305,0,0,0-3.486,7.356c-.793,2.59-1.458,5.22-2.194,7.886H716.347C717.223,1322.615,727.747,1313.327,733.668,1312.363Zm-19.319,20.387a.533.533,0,0,1,.406-.3q6.282-.008,12.564.021c.019,0,.038.03.119.1-.093,1.308-.189,2.664-.288,4.047a30.362,30.362,0,0,0-13.844,1.74C713.636,1336.554,713.978,1334.649,714.349,1332.75Zm8.953,45.229a18.39,18.39,0,1,1,18.37-18.41A18.428,18.428,0,0,1,723.3,1377.979Zm19.784-30.478a23.446,23.446,0,0,0-10.781-9.289.716.716,0,0,1-.377-.526c.083-1.718.209-3.434.326-5.2h20.863a71.38,71.38,0,0,1,0,15.383c-3.216,0-6.338.007-9.459-.015A.82.82,0,0,1,743.086,1347.5Zm1.866,20.739a24.531,24.531,0,0,0,.5-15.545h6.978C751.069,1358.461,749.678,1364.127,744.951,1368.239Zm6.7-.112c3.094-4.818,4.6-10,5.623-15.406H769.23A29.856,29.856,0,0,1,751.65,1368.128Zm19.509-20.811c-.089.355-.188.564-.621.562-4.119-.018-8.238-.016-12.357-.021a1.086,1.086,0,0,1-.222-.073,78.211,78.211,0,0,0-.02-15.328h13.145c.261,1.48.593,2.961.772,4.461A28.666,28.666,0,0,1,771.16,1347.317Z" transform="translate(-249.5 -7.68)" fill="#fff" stroke="rgba(0,0,0,0)" stroke-width="0.8"/>
    <path id="Caminho_69" data-name="Caminho 69" d="M784.8,1508.233c-.859-.14-1.745-.131-2.594-.308a2.838,2.838,0,0,1-2.372-2.628,2.908,2.908,0,0,1,2.328-2.6,3.965,3.965,0,0,1,3.643.824,2.384,2.384,0,0,0,3.02-3.69,6.589,6.589,0,0,0-1.807-1.175c-1.014-.385-1.776-.821-1.517-2.083a.783.783,0,0,0-.088-.359,2.409,2.409,0,0,0-2.651-1.606,2.363,2.363,0,0,0-1.995,2.51,1.147,1.147,0,0,1-.891,1.332c-4.4,1.8-6.163,6.727-3.775,10.55a8.09,8.09,0,0,0,6.886,3.859,4.326,4.326,0,0,1,2.533.758,2.434,2.434,0,0,1,.009,4.021,3.775,3.775,0,0,1-4.47.059c-.441-.325-.825-.727-1.266-1.052a2.375,2.375,0,0,0-3.188.327,2.291,2.291,0,0,0,.033,3.19,18.772,18.772,0,0,0,3.265,2.326c.648.362,1,.616,1.013,1.429a2.357,2.357,0,0,0,2.419,2.266,2.408,2.408,0,0,0,2.336-2.438c.005-.273,0-.547,0-.882.374-.145.706-.253,1.02-.4,2.68-1.26,4.431-3.267,4.65-6.289A7.572,7.572,0,0,0,784.8,1508.233Z" transform="translate(-309.427 -158.472)" fill="#fff" stroke="rgba(0,0,0,0)" stroke-width="0.8"/>
  </g>
</svg>
