<svg xmlns="http://www.w3.org/2000/svg" width="154" height="154" viewBox="0 0 154 154">
  <g id="Grupo_152" data-name="Grupo 152" transform="translate(-1021.101 -250)">
    <circle id="Elipse_18" data-name="Elipse 18" cx="77" cy="77" r="77" transform="translate(1021.101 250)" fill="#264b73" opacity="0.5"/>
    <g id="Grupo_121" data-name="Grupo 121" transform="translate(247.785 -668.67)">
      <path id="Caminho_113" data-name="Caminho 113" d="M896.949,1017.087l0,0a14.221,14.221,0,0,0-19.233.422c-.627.6-1.236,1.212-1.846,1.826s-1.232,1.24-1.863,1.843a2.13,2.13,0,0,1-1.293.565c-1.038.024-2.052.024-3.062.02-.874,0-1.746,0-2.622.011H867a1.171,1.171,0,0,1-1.234-.97,16.907,16.907,0,0,0-.978-2.848c-2.791-5.557-7.582-8.437-14.231-8.541-6.518-.1-13.152-.079-19.567-.054q-3.824.013-7.645.021a2.338,2.338,0,0,0-2.574,2.546c0,.6,0,1.163,0,1.727v1.365h-.5c-.87,0-1.726.005-2.574.011-2,.014-3.885.028-5.8-.034a2.9,2.9,0,0,0-3.136,1.734v24.729a2.988,2.988,0,0,0,3.088,1.752c20.71-.043,41.553-.046,62.013-.015a3.345,3.345,0,0,0,2.542-1.043q10.338-10.383,20.686-20.711a2.508,2.508,0,0,0-.138-4.354Zm-76.243,21.4h-7.248v-18.765h7.248Zm70.969-18.228c-.079.085-.154.164-.228.241v0l-.146.149q-8.591,8.595-17.2,17.172a2.4,2.4,0,0,1-1.509.682q-16.4.03-32.751.029-6.574,0-13.143-.005h-1.231V1014.1l.752-.039c.207-.013.409-.025.612-.025h23.326a12.082,12.082,0,0,1,7.355,2.22,9.108,9.108,0,0,1,3.528,4.861l.193.644H841.189a2.385,2.385,0,0,0-2.613,1.818,2.3,2.3,0,0,0,1.7,2.769,2.258,2.258,0,0,0,.373.057c.2.013.4.014.6.011h7.56q12.512-.006,25.032.019a3.373,3.373,0,0,0,2.675-1.121c1.832-1.91,3.266-3.338,4.663-4.643a9.339,9.339,0,0,1,10.591-1.44l.593.307Z" fill="#fff"/>
      <path id="Caminho_114" data-name="Caminho 114" d="M829.35,974.641q8.723,9.43,17.347,18.775l7.364,7.97a2.745,2.745,0,0,0,1.978,1.09,2.6,2.6,0,0,0,1.808-1.006q5.8-6.276,11.536-12.486,6.617-7.164,13.237-14.32a2.278,2.278,0,0,0,.641-2.63,2.217,2.217,0,0,0-2.312-1.3c-.842.016-1.625.013-2.454.011h-1.21V943.834c0-2.223-.668-2.9-2.857-2.9H837.753c-2.457,0-3.058.594-3.059,3.03v26.774h-1.771c-.6,0-1.187,0-1.767-.008a2.312,2.312,0,0,0-2.452,1.346A2.245,2.245,0,0,0,829.35,974.641Zm7.665.357a2.008,2.008,0,0,0,1.9-1.8,8.056,8.056,0,0,0,.062-1.219V945.313H873v26.326c0,2.586.335,3.058,2.393,3.372l.93.141L855.995,997.17l-20.331-22.015Z" fill="#fff"/>
      <path id="Caminho_115" data-name="Caminho 115" d="M860.347,979.6l.009,0a5.472,5.472,0,0,0,6.171-1.594,7.421,7.421,0,0,0,1.045-8.464,5.962,5.962,0,0,0-6.586-3.2,5.847,5.847,0,0,0-2.391,1.086l-1.434,1.1.665-1.679c.209-.529.423-1.041.631-1.538l1.426-3.393c.9-2.125,1.819-4.323,2.719-6.49a2.186,2.186,0,0,0,.219-1.685,2.125,2.125,0,0,0-1.014-1.29,2.151,2.151,0,0,0-.193-.1,1.948,1.948,0,0,0-1.7,0,2.827,2.827,0,0,0-1.262,1.448c-.112.258-.213.5-.313.746l-2.38,5.632-.054-2.326a10.253,10.253,0,0,0-.155-1.561,6.372,6.372,0,0,0-5.654-5.148,6.207,6.207,0,0,0-6.111,4.359,7.712,7.712,0,0,0,.405,5.988,6.154,6.154,0,0,0,3.833,3.186,5.539,5.539,0,0,0,4.5-.649,6.85,6.85,0,0,0,.882-.681l1.668-1.521-3.213,7.662c-.817,1.936-1.659,3.93-2.465,5.9a2.127,2.127,0,0,0,1.032,2.828,2.163,2.163,0,0,0,1.689.065,2.092,2.092,0,0,0,1.165-1.118l.045-.106c.18-.377.338-.761.492-1.137l1.856-4.4.194,2.235A6.375,6.375,0,0,0,860.347,979.6Zm.761-8.619.661-.44.206-.034a1.53,1.53,0,0,1,.225-.026,2.347,2.347,0,0,1,1.932,2.572,2.944,2.944,0,0,1-.78,2.1,1.615,1.615,0,0,1-1.137.5c-1.054-.031-1.894-1.183-1.9-2.568A2.945,2.945,0,0,1,861.108,970.981Zm-10.071-11.056v.007l-.129.145a1.64,1.64,0,0,1-1.142.537,1.675,1.675,0,0,1-1.193-.574,2.976,2.976,0,0,1-.753-2.091c.04-1.358.929-2.508,1.94-2.508,1.024.015,1.92,1.207,1.935,2.552A2.971,2.971,0,0,1,851.037,959.925Z" fill="#fff"/>
    </g>
  </g>
</svg>
