<svg xmlns="http://www.w3.org/2000/svg" width="111.027" height="111.027" viewBox="0 0 111.027 111.027">
  <g id="Grupo_115" data-name="Grupo 115" transform="translate(-642 -104)">
    <path id="Caminho_106" data-name="Caminho 106" d="M653.738,174.146a9.765,9.765,0,0,0,14.987-9.885,1.182,1.182,0,0,1,.579-1.4q5.663-3.9,11.28-7.868a1.185,1.185,0,0,1,1.518-.085,9.7,9.7,0,0,0,14.36-6.13,1.347,1.347,0,0,1,1.238-1.2c3.6-.729,7.2-1.456,10.785-2.261a1.411,1.411,0,0,1,1.7.617,9.759,9.759,0,0,0,17.06-8.78,1.538,1.538,0,0,1,.276-1.289q7.282-6.57,14.656-13.039a1.387,1.387,0,0,1,1.2-.142,10.332,10.332,0,0,0,4.75.8,9.755,9.755,0,0,0,5.511-17.223,12.764,12.764,0,0,0-4.834-2.27h-2.819c-.059.04-.115.1-.179.115a9.787,9.787,0,0,0-7.673,12.718,1.3,1.3,0,0,1-.375,1.082c-4.837,4.347-9.707,8.656-14.55,12.995a1.062,1.062,0,0,1-1.334.187,9.649,9.649,0,0,0-13.424,6.7,1.306,1.306,0,0,1-1.192,1.112c-3.634.741-7.27,1.478-10.89,2.283a1.321,1.321,0,0,1-1.61-.6,9.733,9.733,0,0,0-17.332,7.653,1.209,1.209,0,0,1-.609,1.421q-5.711,3.926-11.372,7.924a1.012,1.012,0,0,1-1.33.055,9.3,9.3,0,0,0-5.577-1.373,9.756,9.756,0,0,0-4.8,17.87Zm93.613-63.628a3.243,3.243,0,1,1-3.136,3.205A3.211,3.211,0,0,1,747.351,110.517Zm-29.441,26.236a3.243,3.243,0,1,1-3.186,3.158A3.214,3.214,0,0,1,717.909,136.754Zm-30.816,6.51a3.24,3.24,0,1,1-3.329,3.176A3.341,3.341,0,0,1,687.094,143.264ZM659.07,162.78a3.242,3.242,0,1,1-3.114,3.227A3.21,3.21,0,0,1,659.07,162.78Z" transform="translate(-5.754 0)" fill="#fff"/>
    <path id="Caminho_107" data-name="Caminho 107" d="M1067.505,224.828c-4.873.093-9.751.127-14.621-.008a3.655,3.655,0,0,0-4.049,4q.09,38.345.008,76.69c0,1.965.609,3.338,2.413,4.134h18a4.5,4.5,0,0,0,2.385-2.385V227.242A3.912,3.912,0,0,0,1067.505,224.828Zm-2.444,78.263h-9.63V231.448h9.63Z" transform="translate(-318.613 -94.618)" fill="#fff"/>
    <path id="Caminho_108" data-name="Caminho 108" d="M931.564,344.817q-7.309.208-14.628,0c-2.732-.078-4.119,1.585-4.108,4.057q.111,25.3.009,50.61c-.006,1.966.609,3.34,2.414,4.137h18c1.8-.8,2.42-2.171,2.414-4.137q-.077-25.305.009-50.61C935.682,346.4,934.3,344.739,931.564,344.817Zm-2.488,52.214h-9.633V351.41h9.633Z" transform="translate(-212.099 -188.593)" fill="#fff"/>
    <path id="Caminho_109" data-name="Caminho 109" d="M796.562,374.816q-7.309.208-14.627,0c-2.734-.078-4.122,1.587-4.109,4.056q.118,22.053.009,44.106c-.007,1.966.609,3.34,2.414,4.136h18c1.8-.8,2.421-2.17,2.414-4.136q-.082-22.053.009-44.106C800.683,376.4,799.3,374.739,796.562,374.816Zm-2.491,45.706h-9.626V381.407h9.626Z" transform="translate(-106.372 -212.088)" fill="#fff"/>
    <path id="Caminho_110" data-name="Caminho 110" d="M664.767,468.506a3.247,3.247,0,0,0-3.595-3.613c-5.014,0-10.03.059-15.042-.032a3.911,3.911,0,0,0-4.13,2.414v27.974a4.5,4.5,0,0,0,2.385,2.385h18c1.8-.795,2.431-2.165,2.414-4.13C664.727,485.172,664.77,476.839,664.767,468.506Zm-6.579,22.577h-9.625v-19.6h9.625Z" transform="translate(0 -282.607)" fill="#fff"/>
  </g>
</svg>
