<svg xmlns="http://www.w3.org/2000/svg" width="80.204" height="80.176" viewBox="0 0 80.204 80.176">
  <g id="Icons" transform="translate(-8.824 -7)">
    <path id="Caminho_43" data-name="Caminho 43" d="M75.6,31A34.55,34.55,0,1,1,65,20.4V18.054A36.543,36.543,0,1,0,77.946,31Z" fill="#00335e" stroke="#1b365d" stroke-width="2"/>
    <path id="Caminho_44" data-name="Caminho 44" d="M60.035,30.307a23.537,23.537,0,1,0,5.658,5.658L64.257,37.4A21.532,21.532,0,1,1,58.6,31.743Z" fill="#00335e" stroke="#1b365d" stroke-width="2"/>
    <path id="Caminho_45" data-name="Caminho 45" d="M46.5,41a8.49,8.49,0,0,1,2.473.369l1.561-1.56a10.51,10.51,0,1,0,5.657,5.657l-1.56,1.561A8.5,8.5,0,1,1,46.5,41Z" fill="#00335e" stroke="#1b365d" stroke-width="2"/>
    <path id="Caminho_46" data-name="Caminho 46" d="M87.924,17.617A1,1,0,0,0,87,17H79V9a1,1,0,0,0-1.707-.707l-9,9A1,1,0,0,0,68,18v8.586L45.793,48.793a1,1,0,1,0,1.389,1.439l.025-.025L69.414,28H78a1,1,0,0,0,.707-.293l9-9A1,1,0,0,0,87.924,17.617ZM70,18.414l6.983-6.983c.009-.009.017-.006.017.007v6.148l-7,7ZM77.586,26H71.414l7-7h6.148c.013,0,.016.008.007.017Z" fill="#00335e" stroke="#1b365d" stroke-width="2"/>
  </g>
</svg>
