<svg xmlns="http://www.w3.org/2000/svg" width="21.517" height="21.556" viewBox="0 0 21.517 21.556">
  <path id="Icon_feather-phone" data-name="Icon feather-phone" d="M22.683,17.64v2.944a1.962,1.962,0,0,1-2.139,1.962,19.419,19.419,0,0,1-8.468-3.012,19.134,19.134,0,0,1-5.887-5.887A19.419,19.419,0,0,1,3.176,5.139,1.962,1.962,0,0,1,5.128,3H8.072a1.962,1.962,0,0,1,1.962,1.688,12.6,12.6,0,0,0,.687,2.757,1.962,1.962,0,0,1-.442,2.07L9.034,10.762a15.7,15.7,0,0,0,5.887,5.887L16.167,15.4a1.962,1.962,0,0,1,2.07-.442A12.6,12.6,0,0,0,21,15.648a1.962,1.962,0,0,1,1.688,1.992Z" transform="translate(-2.167 -2)" fill="none" stroke="#1b365d" stroke-linecap="round" stroke-linejoin="round" stroke-width="2"/>
</svg>
