<svg xmlns="http://www.w3.org/2000/svg" width="69.641" height="69.651" viewBox="0 0 69.641 69.651">
  <g id="Grupo_64" data-name="Grupo 64" transform="translate(528.984 -1247.994)">
    <path id="Caminho_61" data-name="Caminho 61" d="M-460.886,1495.962a11.146,11.146,0,0,0-15.143.332c-.956.913-1.863,1.876-2.819,2.788a1.227,1.227,0,0,1-.747.325c-1.433.031-2.867,0-4.3.023-.364.005-.493-.132-.591-.466a13.137,13.137,0,0,0-.762-2.213c-2.3-4.581-6.213-6.642-11.164-6.72-6.9-.108-13.8-.031-20.7-.025a2.159,2.159,0,0,0-2.337,2.351c0,.638,0,1.277,0,1.936-2.194,0-4.279.049-6.359-.018a2.588,2.588,0,0,0-2.776,1.626v18.956a2.643,2.643,0,0,0,2.775,1.632q23.555-.043,47.111-.008a2.914,2.914,0,0,0,2.211-.91q7.848-7.883,15.721-15.74C-459.363,1498.428-459.4,1497.266-460.886,1495.962Zm-58.611,16.176h-4.751v-13.51h4.751Zm53.8-13.452q-6.532,6.535-13.075,13.058a1.444,1.444,0,0,1-.908.408q-17.436.031-34.872.017h-.556v-17.832c.225-.011.441-.03.657-.03q8.869,0,17.738,0a9.005,9.005,0,0,1,5.375,1.619,6.522,6.522,0,0,1,2.537,3.494h-.825q-6.955,0-13.909,0a2.179,2.179,0,0,0-2.357,1.677,2.124,2.124,0,0,0,1.916,2.613c.2.014.4.009.6.009,8.22,0,16.439-.009,24.659.014a2.979,2.979,0,0,0,2.317-.978c1.147-1.2,2.313-2.376,3.523-3.508a6.7,6.7,0,0,1,7.62-1.034C-465.426,1498.4-465.56,1498.546-465.7,1498.687Z" transform="translate(0 -199.245)" fill="#fff" stroke="rgba(0,0,0,0)" stroke-width="0.8"/>
    <g id="Grupo_71" data-name="Grupo 71">
      <path id="Caminho_62" data-name="Caminho 62" d="M-423.866,1291.946a18.937,18.937,0,0,0,19.566-16.984,18.9,18.9,0,0,0-12.871-19.8,45.191,45.191,0,0,0-4.443-.973h-2.957c-1.118.212-2.257.348-3.352.647a18.82,18.82,0,0,0-13.873,20.724A18.935,18.935,0,0,0-423.866,1291.946Zm.869-33.454a14.587,14.587,0,0,1,14.473,14.609,14.6,14.6,0,0,1-14.667,14.556,14.6,14.6,0,0,1-14.472-14.615A14.581,14.581,0,0,1-423,1258.491Z" transform="translate(-71.081 -5.794)" fill="#fff" stroke="rgba(0,0,0,0)" stroke-width="0.8"/>
      <path id="Caminho_63" data-name="Caminho 63" d="M-363.548,1313.366a2.21,2.21,0,0,1,1.034.2c.3.2.658.587.656.891a1.3,1.3,0,0,1-.664.886,1.623,1.623,0,0,1-2.024-.361,2.291,2.291,0,0,0-1.776-.819,2.013,2.013,0,0,0-1.943,1.29,1.969,1.969,0,0,0,.411,2.3,10.889,10.889,0,0,0,1.8,1.388,1.333,1.333,0,0,1,.774.961,2.072,2.072,0,0,0,2.12,1.609,2.114,2.114,0,0,0,2.02-1.742.914.914,0,0,1,.58-.782,5.166,5.166,0,0,0,3.05-4.7,5.546,5.546,0,0,0-5.364-5.407,2.239,2.239,0,0,1-1.042-.165c-.337-.218-.74-.611-.764-.952-.02-.289.4-.747.731-.893a2,2,0,0,1,2.3.62,2.154,2.154,0,0,0,3.024.154,2.07,2.07,0,0,0,.158-3.007,7.791,7.791,0,0,0-1.958-1.48,1.325,1.325,0,0,1-.819-1.056,2.068,2.068,0,0,0-2.187-1.688,2.1,2.1,0,0,0-2,1.912.74.74,0,0,1-.49.686,5.194,5.194,0,0,0-3.118,4.863A5.576,5.576,0,0,0-363.548,1313.366Z" transform="translate(-130.904 -43.875)" fill="#fff" stroke="rgba(0,0,0,0)" stroke-width="0.8"/>
    </g>
  </g>
</svg>
