<svg id="Grupo_132" data-name="Grupo 132" xmlns="http://www.w3.org/2000/svg" width="75.91" height="70.495" viewBox="0 0 75.91 70.495">
  <path id="Caminho_130" data-name="Caminho 130" d="M193.428,1290.013c-2.428-.005-4.857.033-7.284-.016a3.671,3.671,0,0,0-2.85,1.2q-7.249,7.3-14.562,14.545a1.947,1.947,0,0,1-1.23.51c-3.783.039-7.567.018-11.35.024a8.137,8.137,0,0,0-8.485,8.466q-.012,10.5,0,21a8.139,8.139,0,0,0,8.481,8.471c3.755.007,7.511.014,11.266-.012a1.779,1.779,0,0,1,1.4.577c4.837,4.865,9.7,9.7,14.537,14.57a3.513,3.513,0,0,0,2.7,1.14c2.371-.04,4.743-.012,7.115-.013,2.307,0,3.286-.984,3.286-3.3q0-15.922,0-31.844,0-16.134,0-32.267A2.742,2.742,0,0,0,193.428,1290.013ZM191,1355.056c-1.355,0-2.674.03-3.99-.024a1.516,1.516,0,0,1-.807-.521q-7.258-7.233-14.487-14.494a3.889,3.889,0,0,0-3.006-1.237c-4.177.044-8.356.019-12.534.016a2.753,2.753,0,0,1-3.087-3.076q0-10.5,0-21a2.752,2.752,0,0,1,3.052-3.026c4.263,0,8.525-.017,12.788.01a3.469,3.469,0,0,0,2.638-1.092c4.837-4.863,9.7-9.7,14.534-14.567a1.9,1.9,0,0,1,1.551-.625c1.094.042,2.19.011,3.347.011Z" transform="translate(-147.662 -1289.996)" fill="#fff"/>
  <path id="Caminho_131" data-name="Caminho 131" d="M423.776,1347.213a22.811,22.811,0,0,0-8.461-8.8,2.7,2.7,0,1,0-2.739,4.652,18.008,18.008,0,0,1,7.115,8.059,26.406,26.406,0,0,1,2.2,14.2c-.693,6.9-3.331,12.709-9.464,16.52a2.7,2.7,0,0,0,2.955,4.516,21.347,21.347,0,0,0,6.338-5.656c4.153-5.391,5.7-11.611,5.759-18.206A30.834,30.834,0,0,0,423.776,1347.213Z" transform="translate(-351.567 -1327.156)" fill="#fff"/>
  <path id="Caminho_132" data-name="Caminho 132" d="M398.116,1398.791a35.181,35.181,0,0,0-.561-3.7,13.527,13.527,0,0,0-6.048-8.646,2.689,2.689,0,0,0-3.839.826,2.722,2.722,0,0,0,.963,3.759,8.756,8.756,0,0,1,1.323,1.046,9.177,9.177,0,0,1,2.6,5.829c.37,4.135-.4,7.811-4.2,10.278a2.617,2.617,0,0,0-.726,3.544,2.65,2.65,0,0,0,3.458,1.059,9.1,9.1,0,0,0,1.817-1.226C396.6,1408.4,398.026,1404.255,398.116,1398.791Z" transform="translate(-333.032 -1364.256)" fill="#fff"/>
</svg>
