<svg id="Grupo_131" data-name="Grupo 131" xmlns="http://www.w3.org/2000/svg" width="70.212" height="70.495" viewBox="0 0 70.212 70.495">
  <path id="Caminho_128" data-name="Caminho 128" d="M-220.2,1312.4a34.957,34.957,0,0,0-49.359-20.85,35,35,0,0,0-14.708,48.008,1.815,1.815,0,0,1,.129,1.222c-1.033,3.9-2.109,7.785-3.173,11.675-.513,1.877-1.024,3.755-1.564,5.733.336-.073.569-.114.8-.174,5.7-1.491,11.4-2.99,17.105-4.458a1.8,1.8,0,0,1,1.161.119,34.525,34.525,0,0,0,26.506,2.37A35.008,35.008,0,0,0-220.2,1312.4Zm-27.748,38.746a28.5,28.5,0,0,1-20.825-3.687,1.766,1.766,0,0,0-1.506-.224c-3.35.905-6.71,1.773-10.215,2.692.742-2.715,1.339-5.339,2.193-7.876a5.721,5.721,0,0,0-.592-5.148,29.021,29.021,0,0,1,19.912-42.812,29.109,29.109,0,0,1,33.891,23.075A29.088,29.088,0,0,1-247.95,1351.151Z" transform="translate(288.877 -1287.698)" fill="#fff"/>
  <path id="Caminho_129" data-name="Caminho 129" d="M-181.754,1389.434q-3.632-1.831-7.335-3.52c-.9-.409-1.255-.213-1.879.579-.848,1.077-1.724,2.13-2.579,3.2a1.369,1.369,0,0,1-1.757.443,24,24,0,0,1-12.025-10.325,1.383,1.383,0,0,1,.142-1.8c.731-.886,1.393-1.828,2.083-2.748a1.779,1.779,0,0,0,.179-1.928c-.87-2.02-1.735-4.044-2.527-6.095-.518-1.341-1.244-2.231-2.721-1.865a3.743,3.743,0,0,0-3.305.917,9.9,9.9,0,0,0-2.861,9.8,19.718,19.718,0,0,0,3.524,7.033c4.965,6.98,11.171,12.275,19.595,14.621a10.284,10.284,0,0,0,6.91-.078c3.967-1.668,5.063-3.453,5.119-7.177A1.382,1.382,0,0,0-181.754,1389.434Z" transform="translate(234.125 -1346.517)" fill="#fff"/>
</svg>
